<svg width="28" height="43" viewBox="0 0 28 43" fill="none" xmlns="http://www.w3.org/2000/svg">
<path d="M19.4796 25.5227L17.0324 22.3828C16.8831 22.1913 16.802 21.9554 16.802 21.7125C16.802 20.9534 16.0457 20.4266 15.3336 20.6898L13.5442 21.3511C13.2357 21.4651 13.0309 21.7592 13.0309 22.088C13.0309 22.2492 12.9813 22.4065 12.8889 22.5385L12.5815 22.9777C12.2432 23.4612 11.7439 23.8086 11.173 23.9578L10.3289 24.1784C9.31211 24.4442 8.40885 25.0324 7.75457 25.8548L7.33971 26.3763L6.5353 27.2213C6.27322 27.4966 5.98985 27.7507 5.68781 27.9815L3.68962 29.508C3.15836 29.9138 2.84668 30.5442 2.84668 31.2127C2.84668 31.8424 3.12335 32.4403 3.60334 32.8479L3.89034 33.0916C4.42516 33.5458 5.10397 33.7951 5.80562 33.7951H18.531C19.6024 33.7951 20.6692 33.6562 21.7048 33.3817L22.6603 33.1284C22.834 33.0824 23.0025 33.0189 23.1633 32.9389L23.5885 32.7274C24.2314 32.4076 24.6379 31.7514 24.6379 31.0334C24.6379 30.4746 24.3909 29.9444 23.9631 29.5849L20.9734 27.0725C20.4226 26.6096 19.9219 26.0902 19.4796 25.5227Z" fill="#458E48" stroke="#458E48" stroke-width="4"/>
<path d="M11.3231 26.7736H10.3707C9.88687 26.7736 9.49463 26.3814 9.49463 25.8975V25.8975C9.49463 25.4137 9.88687 25.0214 10.3707 25.0214H10.8292C11.1479 25.0214 11.456 25.1354 11.6979 25.3429L14.9717 28.1499C15.2844 28.418 15.7309 28.4633 16.091 28.2635V28.2635C16.5382 28.0154 16.7212 27.4665 16.5124 26.9997L16.2232 26.3531" stroke="black" stroke-width="2"/>
<path d="M13.927 23.0717L12.1601 22.3981C11.8897 22.295 11.7109 22.0356 11.7109 21.7461V21.7461C11.7109 21.4501 11.8978 21.1862 12.1771 21.088L13.927 20.4721" stroke="black" stroke-width="2"/>
<path d="M13.4324 18.1974H12.344C11.9944 18.1974 11.7109 17.914 11.7109 17.5643V17.5643C11.7109 17.3329 11.8372 17.1199 12.0403 17.0088L12.914 16.5311C13.2542 16.3452 13.6356 16.2477 14.0233 16.2477H15.7737" stroke="black" stroke-width="2"/>
<path d="M14.6333 10.7234L13.6068 11.7134C13.3395 11.9713 13.1885 12.3267 13.1885 12.6981V12.6981C13.1885 13.1988 13.462 13.6595 13.9017 13.8991L14.1994 14.0614C14.4841 14.2166 14.8032 14.2979 15.1274 14.2979H15.7739" stroke="black" stroke-width="2"/>
<path d="M9.49515 8.44882L8.31953 7.81167C7.90601 7.58756 7.64844 7.15499 7.64844 6.68465V6.68465C7.64844 6.22781 7.89156 5.8055 8.28662 5.5761L9.49515 4.87433" stroke="black" stroke-width="2"/>
<path d="M17.9897 8.12386L19.6955 7.1995C20.0099 7.02909 20.2058 6.70017 20.2058 6.34252V6.34252C20.2058 5.92852 19.9443 5.55969 19.5536 5.4227L17.9897 4.87433" stroke="black" stroke-width="2"/>
<path d="M4.288 40.54C4.45867 40.5907 4.58933 40.6733 4.68 40.788C4.77067 40.9027 4.816 41.044 4.816 41.212C4.816 41.46 4.72133 41.6533 4.532 41.792C4.34533 41.9307 4.07733 42 3.728 42H2.348V39.2H3.652C3.97733 39.2 4.23067 39.2627 4.412 39.388C4.59333 39.5133 4.684 39.692 4.684 39.924C4.684 40.0627 4.64933 40.1853 4.58 40.292C4.51067 40.396 4.41333 40.4787 4.288 40.54ZM2.992 40.36H3.596C3.73733 40.36 3.844 40.332 3.916 40.276C3.988 40.2173 4.024 40.132 4.024 40.02C4.024 39.9107 3.98667 39.8267 3.912 39.768C3.84 39.7093 3.73467 39.68 3.596 39.68H2.992V40.36ZM3.704 41.52C4.008 41.52 4.16 41.4 4.16 41.16C4.16 40.928 4.008 40.812 3.704 40.812H2.992V41.52H3.704ZM7.81647 39.2V42H7.18847V41.66C6.99647 41.9187 6.7138 42.048 6.34047 42.048C6.0098 42.048 5.75114 41.944 5.56447 41.736C5.38047 41.5253 5.28847 41.2267 5.28847 40.84V39.2H5.93647V40.82C5.93647 41.044 5.98847 41.2133 6.09247 41.328C6.19914 41.44 6.34314 41.496 6.52447 41.496C6.71914 41.496 6.87514 41.436 6.99247 41.316C7.1098 41.1933 7.16847 41.0133 7.16847 40.776V39.2H7.81647ZM10.6004 39.984C10.3604 39.8453 10.1031 39.756 9.82844 39.716V42H9.18044V39.716C8.90577 39.756 8.6471 39.8453 8.40444 39.984L8.18444 39.5C8.37644 39.3853 8.58444 39.2987 8.80844 39.24C9.03244 39.1813 9.2631 39.152 9.50044 39.152C9.74044 39.152 9.97244 39.1813 10.1964 39.24C10.4231 39.2987 10.6311 39.3853 10.8204 39.5L10.6004 39.984ZM12.4123 39.152C12.671 39.152 12.8963 39.2027 13.0883 39.304C13.2803 39.4053 13.4296 39.5547 13.5363 39.752C13.643 39.9493 13.6963 40.188 13.6963 40.468V42H13.0483V41.328H11.7683V42H11.1283V40.468C11.1283 40.188 11.1816 39.9493 11.2883 39.752C11.395 39.5547 11.5443 39.4053 11.7363 39.304C11.9283 39.2027 12.1536 39.152 12.4123 39.152ZM13.0483 40.808V40.408C13.0483 40.176 12.991 40.0013 12.8763 39.884C12.7616 39.764 12.6056 39.704 12.4083 39.704C12.2083 39.704 12.051 39.764 11.9363 39.884C11.8243 40.0013 11.7683 40.176 11.7683 40.408V40.808H13.0483ZM15.6291 39.152C15.8771 39.152 16.0945 39.2013 16.2811 39.3C16.4705 39.3987 16.6171 39.544 16.7211 39.736C16.8251 39.9253 16.8771 40.1547 16.8771 40.424V42H16.2251V40.368C16.2251 40.1493 16.1718 39.984 16.0651 39.872C15.9585 39.76 15.8131 39.704 15.6291 39.704C15.4425 39.704 15.2945 39.76 15.1851 39.872C15.0785 39.984 15.0251 40.1493 15.0251 40.368V42H14.0531L14.0491 41.472H14.3731V40.424C14.3731 40.1547 14.4251 39.9253 14.5291 39.736C14.6331 39.544 14.7798 39.3987 14.9691 39.3C15.1585 39.2013 15.3785 39.152 15.6291 39.152ZM18.8403 42.048C18.5496 42.048 18.2869 41.9853 18.0523 41.86C17.8203 41.7347 17.6376 41.5627 17.5043 41.344C17.3736 41.1227 17.3083 40.8747 17.3083 40.6C17.3083 40.3253 17.3736 40.0787 17.5043 39.86C17.6376 39.6387 17.8203 39.4653 18.0523 39.34C18.2869 39.2147 18.5496 39.152 18.8403 39.152C19.1309 39.152 19.3923 39.2147 19.6243 39.34C19.8563 39.4653 20.0389 39.6387 20.1723 39.86C20.3056 40.0787 20.3723 40.3253 20.3723 40.6C20.3723 40.8747 20.3056 41.1227 20.1723 41.344C20.0389 41.5627 19.8563 41.7347 19.6243 41.86C19.3923 41.9853 19.1309 42.048 18.8403 42.048ZM18.8403 41.496C19.0056 41.496 19.1549 41.4587 19.2883 41.384C19.4216 41.3067 19.5256 41.2 19.6003 41.064C19.6776 40.928 19.7163 40.7733 19.7163 40.6C19.7163 40.4267 19.6776 40.272 19.6003 40.136C19.5256 40 19.4216 39.8947 19.2883 39.82C19.1549 39.7427 19.0056 39.704 18.8403 39.704C18.6749 39.704 18.5256 39.7427 18.3923 39.82C18.2589 39.8947 18.1536 40 18.0763 40.136C18.0016 40.272 17.9643 40.4267 17.9643 40.6C17.9643 40.7733 18.0016 40.928 18.0763 41.064C18.1536 41.2 18.2589 41.3067 18.3923 41.384C18.5256 41.4587 18.6749 41.496 18.8403 41.496ZM21.9554 40.872H21.5074V42H20.8634V39.2H21.5074V40.332H21.9714L22.7074 39.2H23.3914L22.4754 40.552L23.4194 42H22.6834L21.9554 40.872ZM25.0353 42.048C24.7499 42.048 24.4913 41.9867 24.2593 41.864C24.0299 41.7387 23.8486 41.5667 23.7153 41.348C23.5846 41.1267 23.5193 40.8773 23.5193 40.6C23.5193 40.3227 23.5846 40.0747 23.7153 39.856C23.8486 39.6347 24.0299 39.4627 24.2593 39.34C24.4913 39.2147 24.7513 39.152 25.0393 39.152C25.2819 39.152 25.5006 39.1947 25.6953 39.28C25.8926 39.3653 26.0579 39.488 26.1913 39.648L25.7753 40.032C25.5859 39.8133 25.3513 39.704 25.0713 39.704C24.8979 39.704 24.7433 39.7427 24.6073 39.82C24.4713 39.8947 24.3646 40 24.2873 40.136C24.2126 40.272 24.1753 40.4267 24.1753 40.6C24.1753 40.7733 24.2126 40.928 24.2873 41.064C24.3646 41.2 24.4713 41.3067 24.6073 41.384C24.7433 41.4587 24.8979 41.496 25.0713 41.496C25.3513 41.496 25.5859 41.3853 25.7753 41.164L26.1913 41.548C26.0579 41.7107 25.8926 41.8347 25.6953 41.92C25.4979 42.0053 25.2779 42.048 25.0353 42.048Z" fill="black"/>
<path d="M9.61764 7.47394V15.8408C9.61764 19.8441 7.86888 23.6477 4.83006 26.2539V26.2539L2.02773 28.9627C1.3709 29.5976 1 30.4719 1 31.3854V31.3854C1 32.5111 1.5621 33.5624 2.49821 34.1876L3.44402 34.8192C4.34773 35.4228 5.41006 35.7449 6.49678 35.7449H20.0979C21.1478 35.7449 22.1815 35.4861 23.1075 34.9913L24.7715 34.1023C25.8261 33.5389 26.4846 32.4404 26.4846 31.2447V31.2447C26.4846 30.4172 26.1679 29.621 25.5995 29.0195L23.6857 26.9944V26.9944C20.3514 23.9043 18.4562 19.564 18.4562 15.018V9.69523" stroke="black" stroke-width="2"/>
<path d="M9.79037 31.0655L6.84839 31.6359C6.1141 31.7782 5.43213 31.2157 5.43213 30.4678V30.4678C5.43213 30.0007 5.70538 29.5769 6.13077 29.3841L6.94296 29.016C7.53841 28.7461 8.21426 28.713 8.83324 28.9234L9.97447 29.3113C10.7295 29.568 11.4213 29.9824 12.0039 30.527L12.5895 31.0745C13.1805 31.6269 13.8697 32.0637 14.6214 32.3624L15.2008 32.5926C15.5793 32.743 15.9829 32.8203 16.3902 32.8203V32.8203C17.3134 32.8203 18.1922 32.4242 18.8036 31.7326L19.3933 31.0655L20.9445 29.7007" stroke="black" stroke-width="2"/>
<path d="M12.6997 2.95264L12.9112 2.34147C13.105 1.90413 13.7115 1.86742 13.9566 2.27818L14.1362 2.57914C14.1741 2.64259 14.2026 2.71115 14.221 2.78272L14.3193 3.16634C14.3984 3.47453 14.2852 3.80009 14.0321 3.99288C13.7865 4.17999 13.4545 4.20722 13.1816 4.06264L13.125 4.03262C12.7364 3.8267 12.5558 3.36825 12.6997 2.95264Z" fill="#458E48" stroke="#458E48" stroke-width="2"/>
<mask id="path-12-inside-1_310_51" fill="white">
<path d="M13.9271 0L15.2065 2.43715H12.6476L13.9271 0Z"/>
</mask>
<path d="M13.9271 0L15.2065 2.43715H12.6476L13.9271 0Z" fill="#458E48"/>
<path d="M13.9271 0L17.4687 -1.85926L13.9271 -8.60556L10.3854 -1.85926L13.9271 0ZM15.2065 2.43715V6.43715H21.8241L18.7481 0.577889L15.2065 2.43715ZM12.6476 2.43715L9.10601 0.577889L6.03005 6.43715H12.6476V2.43715ZM10.3854 1.85926L11.6649 4.29641L18.7481 0.577889L17.4687 -1.85926L10.3854 1.85926ZM15.2065 -1.56285H12.6476V6.43715H15.2065V-1.56285ZM16.1893 4.29641L17.4687 1.85926L10.3854 -1.85926L9.10601 0.577889L16.1893 4.29641Z" fill="#458E48" mask="url(#path-12-inside-1_310_51)"/>
</svg>
