<svg width="61" height="63" viewBox="0 0 61 63" fill="none" xmlns="http://www.w3.org/2000/svg">
<path d="M60 31.5C60 48.3447 46.7924 62 30.5 62C14.2076 62 1 48.3447 1 31.5C1 14.6553 14.2076 1 30.5 1C46.7924 1 60 14.6553 60 31.5Z" fill="#458E48"/>
<path d="M17.8946 23.2217L21.2676 29.3243L24.6479 34.6757C25.6194 36.0429 27.7745 35.2819 27.6721 33.6078L27.0311 23.122C26.9608 21.9716 27.8748 21 29.0274 21H31.662C32.7665 21 33.662 21.8954 33.662 23V33.4865L41.5178 21.879C41.8898 21.3293 42.5103 21 43.1741 21H45.5264C47.2553 21 48.1697 23.0454 47.0168 24.3337L41.4629 30.5401C40.8514 31.2235 40.783 32.2353 41.297 32.9948L43.1476 35.7292C43.2087 35.8195 43.2771 35.9046 43.3521 35.9838L46.8016 39.6244C48.0093 40.8991 47.1057 43 45.3498 43H41.9702C41.3496 43 40.7641 42.7118 40.3855 42.22L33.662 33.4865V41C33.662 42.1046 32.7665 43 31.662 43H25.6001C24.9977 43 24.4274 42.7285 24.0476 42.2609L21.2676 38.8378L15.0704 30.5135L11.8519 25.2296C11.0401 23.8968 11.9995 22.1892 13.56 22.1892H16.1442C16.8721 22.1892 17.5425 22.5847 17.8946 23.2217Z" fill="white"/>
<path d="M33.662 33.4865L41.5178 21.879C41.8898 21.3293 42.5103 21 43.1741 21H45.5264C47.2553 21 48.1697 23.0454 47.0168 24.3337L41.4629 30.5401C40.8514 31.2235 40.783 32.2353 41.297 32.9948L43.1476 35.7292C43.2087 35.8195 43.2771 35.9046 43.3521 35.9838L46.8016 39.6244C48.0093 40.8991 47.1057 43 45.3498 43H41.9702C41.3496 43 40.7641 42.7118 40.3855 42.22L33.662 33.4865ZM33.662 33.4865V23C33.662 21.8954 32.7665 21 31.662 21H29.0274C27.8748 21 26.9608 21.9716 27.0311 23.122L27.6721 33.6078C27.7745 35.2819 25.6194 36.0429 24.6479 34.6757L21.2676 29.3243L17.8946 23.2217C17.5425 22.5847 16.8721 22.1892 16.1442 22.1892H13.56C11.9995 22.1892 11.0401 23.8968 11.8519 25.2296L15.0704 30.5135L21.2676 38.8378L24.0476 42.2609C24.4274 42.7285 24.9977 43 25.6001 43H31.662C32.7665 43 33.662 42.1046 33.662 41V33.4865ZM60 31.5C60 48.3447 46.7924 62 30.5 62C14.2076 62 1 48.3447 1 31.5C1 14.6553 14.2076 1 30.5 1C46.7924 1 60 14.6553 60 31.5Z" stroke="white"/>
</svg>
