<svg width="56" height="57" viewBox="0 0 56 57" fill="none" xmlns="http://www.w3.org/2000/svg">
<path d="M56 28.5C56 44.2401 43.464 57 28 57C12.536 57 0 44.2401 0 28.5C0 12.7599 12.536 0 28 0C43.464 0 56 12.7599 56 28.5Z" fill="#458E48"/>
<path d="M9.70667 20.33C9.70667 18.2313 11.3781 16.53 13.44 16.53H44.0533C46.1152 16.53 47.7867 18.2313 47.7867 20.33V36.86C47.7867 38.9587 46.1152 40.66 44.0533 40.66H13.44C11.3781 40.66 9.70667 38.9587 9.70667 36.86V20.33Z" fill="white"/>
<path d="M34.2752 27.9203C34.8212 28.2055 34.8147 29.0022 34.2642 29.2783L26.3599 33.2417C25.8613 33.4917 25.2787 33.1194 25.2833 32.5537L25.3482 24.4954C25.3528 23.9297 25.9413 23.5672 26.4357 23.8255L34.2752 27.9203Z" fill="#458E48"/>
</svg>
