<svg width="48" height="72" viewBox="0 0 48 72" fill="none" xmlns="http://www.w3.org/2000/svg">
<path d="M0 30.4427V60.8854H15.7431H31.4862V58.5519V56.2185H18.1284H4.77064V30.4427V4.66693H24H43.2294V30.4427V56.2185H41.0275H38.8257V58.5519V60.8854H43.4128H48V30.4427V3.8147e-06H24H0V30.4427Z" fill="black"/>
<path d="M9.17432 10.4827V11.8469H24H38.8257V10.4827V9.11857H24H9.17432V10.4827Z" fill="black"/>
<path d="M9.17432 17.3395V18.7396H24H38.8257V17.3395V15.9395H24H9.17432V17.3395Z" fill="black"/>
<path d="M9.17432 24.2324V25.6324H24H38.8257V24.2324V22.8323H24H9.17432V24.2324Z" fill="black"/>
<path d="M9.17432 31.0891V32.4532H24H38.8257V31.0891V29.7249H24H9.17432V31.0891Z" fill="black"/>
<path d="M9.17432 37.9459V39.3459H24H38.8257V37.9459V36.5458H24H9.17432V37.9459Z" fill="black"/>
<path d="M35.0314 42.1174L34.3561 42.4261L33.7103 42.2897C33.358 42.2107 33.013 42.1461 32.9543 42.1461C32.8956 42.1461 32.6387 42.3974 32.3892 42.7062L31.9268 43.2662L31.1928 43.4313C30.5176 43.5821 30.4515 43.6108 30.4148 43.7831C30.3561 44.0488 30.2387 44.5011 30.158 44.8099C30.1066 45.0037 29.9598 45.1689 29.5194 45.5135L28.9396 45.973L29.0937 46.6982L29.2552 47.4233L28.9396 48.0911L28.624 48.7516L29.1011 49.3691L29.5782 49.9794V50.6974V51.4082L30.2387 51.7313L30.8993 52.0544L31.1855 52.6144L31.4791 53.1672L31.4864 51.9251V50.6902L31.2295 50.1876C30.5983 48.9598 30.591 47.488 31.2148 46.253C31.5011 45.6786 32.2791 44.8529 32.8369 44.5227C33.6442 44.0488 34.136 43.9124 35.1194 43.9124C36.1983 43.9052 36.8148 44.0775 37.6295 44.6016C38.3048 45.0468 38.7598 45.5494 39.1268 46.2746C39.7873 47.5813 39.7873 48.8449 39.1194 50.166L38.8259 50.7476V51.7169V52.6862L39.1415 52.6144C39.3103 52.5713 39.4791 52.5139 39.5084 52.4851C39.5451 52.4564 39.6185 52.241 39.6772 52.0113C39.736 51.7815 39.824 51.4656 39.8607 51.322C39.9121 51.121 40.0589 50.9558 40.5066 50.5968L41.0791 50.1301L40.9323 49.4122L40.7782 48.6942L41.0644 48.0623C41.2259 47.7177 41.3653 47.4162 41.38 47.3874C41.3873 47.3587 41.1965 47.0859 40.947 46.7843C40.7048 46.4756 40.4846 46.1669 40.4772 46.1022C40.4626 46.0376 40.4479 45.693 40.4479 45.3412L40.4405 44.695L39.7653 44.3575L39.0827 44.0273L38.7525 43.3739L38.4295 42.7205H37.6882H36.9396L36.3304 42.2538C35.9928 41.9953 35.7139 41.7871 35.7139 41.7943C35.7066 41.7943 35.4057 41.9379 35.0314 42.1174Z" fill="black"/>
<path d="M9.17432 44.8384V46.2385H17.6514H26.1284V44.8384V43.4384H17.6514H9.17432V44.8384Z" fill="black"/>
<path d="M34.2752 44.7021C33.5927 44.8816 33.0862 45.1616 32.5798 45.657C31.7505 46.4612 31.4495 47.251 31.5009 48.4213C31.5376 49.168 31.6991 49.6993 32 50.1229C32.1468 50.3096 32.1468 50.5465 32.1615 61.1584L32.1835 72L33.6514 70.9661C34.4514 70.3989 35.1413 69.9322 35.1706 69.9322C35.2073 69.9322 35.8752 70.3845 36.6532 70.9374C37.4385 71.4902 38.0991 71.9426 38.1211 71.9426C38.1431 71.9426 38.1651 67.1105 38.1651 61.2015V50.4604L38.4661 49.8644C39.0238 48.7659 39.0312 47.6961 38.4881 46.6048C37.7321 45.1042 35.9046 44.2785 34.2752 44.7021Z" fill="black"/>
</svg>
