<svg width="63" height="76" viewBox="0 0 63 76" fill="none" xmlns="http://www.w3.org/2000/svg">
<path d="M18.3379 1.64539C14.8532 4.49146 14.8532 4.7138 20.1347 20.9898C22.6939 28.8609 25.253 37.0434 25.8519 39.0445L26.9409 42.78L24.7085 47.6716C22.9117 51.585 22.3127 52.4744 21.6049 52.252C19.318 51.496 15.0165 51.0513 12.8385 51.3182C9.46267 51.7184 4.99782 53.8974 3.03764 56.1209C-5.56536 65.8153 5.43341 78.756 19.4269 75.4653C25.5797 73.9978 29.3911 69.9955 30.3168 63.9921C30.589 61.9465 31.0791 60.0787 31.4058 59.8119C31.7325 59.5896 31.8958 59.5896 31.8958 59.9008C31.8958 60.1677 32.1681 61.9909 32.4947 63.8587C33.4204 69.2395 35.7073 72.2635 40.5533 74.4425C46.5971 77.1107 53.4033 76.3102 58.3037 72.3524C64.5654 67.1939 64.5654 59.9898 58.3037 54.8313C54.0567 51.4071 48.5573 50.2954 43.0035 51.8518C41.6422 52.2076 40.4444 52.4744 40.3355 52.3854C40.281 52.2965 39.2465 50.162 38.103 47.6716L36.034 43.0468L37.0685 39.2224C37.613 37.0878 38.1575 34.553 38.2119 33.5747C38.2664 32.5964 40.0632 26.593 42.1323 20.2338C46.9238 5.55873 46.6516 6.75941 46.0526 4.66933C45.5626 2.89054 42.459 0 41.0433 0C40.5533 0 38.7564 5.20297 35.8162 15.1642C33.3115 23.4801 31.1335 30.195 30.9702 30.0616C30.8068 29.9727 28.6833 23.2132 26.2875 15.0753C23.6195 6.31471 21.5504 0.222351 21.1148 0.0889359C20.7337 0 19.4813 0.711517 18.3379 1.64539ZM21.1148 57.1882C26.1786 59.8564 26.7776 66.0377 22.3127 69.4619C18.1746 72.5747 12.4029 72.3079 8.59148 68.7503C6.5224 66.8381 6.08681 65.593 6.4135 62.7024C7.12134 56.8324 14.9076 53.9419 21.1148 57.1882ZM51.552 56.7435C53.6211 57.5884 55.7446 59.8119 56.398 61.8575C58.4671 68.1278 50.0274 73.731 42.8946 70.7515C40.3899 69.7287 39.2465 68.7059 38.1575 66.5713C37.0685 64.3923 37.1229 62.4801 38.4297 60.2566C40.7711 56.2988 46.6516 54.7423 51.552 56.7435Z" fill="black"/>
</svg>
