<svg width="62" height="76" viewBox="0 0 62 76" fill="none" xmlns="http://www.w3.org/2000/svg">
<path d="M44.215 1.80888C43.1904 3.274 42.7569 3.61691 42.3629 3.36752C41.7717 2.96227 41.6929 3.05579 37.0823 9.82028C35.2695 12.4388 33.7327 14.5897 33.6538 14.5897C33.5356 14.5897 33.1415 14.465 32.7475 14.3092C32.1564 14.0286 31.6047 14.6209 28.7673 18.8292C26.994 21.4789 25.5753 23.6921 25.6542 23.7545C25.733 23.8168 26.127 23.9727 26.4817 24.1286C27.0728 24.3779 26.6787 25.0949 23.3685 29.9579C20.3736 34.3844 19.7037 35.569 20.0583 35.9119C20.4524 36.2548 20.413 36.5977 19.8613 37.377C19.2702 38.3433 19.2702 38.4057 19.9007 38.7798C20.2948 38.998 20.7676 39.2473 21.0041 39.3097C21.2011 39.3409 21.0041 39.9955 20.5312 40.7125C20.0977 41.3983 19.7037 42.1152 19.7037 42.2711C19.7037 42.5517 22.1863 43.5804 22.8562 43.5804C23.0533 43.5804 23.605 43.0192 24.0385 42.3334C24.9448 40.9307 25.063 40.8995 26.3241 41.5853C27.1516 42.0217 27.2304 42.0217 27.861 40.9307C28.3339 40.1202 28.7279 39.8396 29.319 39.902C30.0284 39.9955 30.7377 39.0915 33.8903 34.4779C36.6882 30.3631 37.7916 28.9915 38.2251 29.1162C38.5403 29.2097 38.9738 29.3032 39.2103 29.3344C39.4073 29.3656 40.1954 28.4616 40.9836 27.3082C42.954 24.3779 42.9146 24.3779 45.2002 25.282C51.1901 27.7134 55.6037 32.2958 57.3376 37.9069C57.8893 39.6526 58.0075 40.8995 57.8105 43.3621C57.4953 47.7575 55.9584 51.093 52.727 54.3349C48.3922 58.668 42.2052 61.0371 35.2695 61.0371C29.6737 61.0371 24.3143 59.2602 20.2948 56.0494L17.9697 54.1791H23.3685H28.7673V52.1529V50.1266H14.3837H0V52.1529V54.1791H6.42339H12.8468L14.7777 56.2365C16.8269 58.4186 19.8219 60.5071 22.6986 61.8476L24.4325 62.6581V65.1207V67.5522L18.482 67.6457L12.5709 67.7392L12.4921 71.8852L12.4133 76H17.2604H22.1469L23.9202 74.7531C26.7182 72.8204 29.3978 72.1346 34.0873 72.1034C37.6734 72.1034 38.2645 72.1969 40.5895 73.0698C42.0082 73.5997 43.8209 74.4725 44.6091 75.0336L46.0277 76H50.796H55.5643V71.7917V67.5834H51.4265H47.3282L47.2099 64.996L47.0917 62.4399L48.8651 61.6294C54.6185 58.9797 59.3868 53.6491 61.2784 47.7887C62.3029 44.7337 62.2241 39.5279 61.1207 36.3171C60.0567 33.0751 57.5741 29.4279 54.8944 27.09C52.5693 25.0326 48.668 22.6634 46.343 21.9153C45.082 21.4789 44.9637 21.3854 45.3972 20.8243C45.7913 20.3567 45.7519 20.1385 45.1608 19.6085C44.4908 19.0162 44.5697 18.8292 48.2739 13.4363C51.3477 8.91627 51.9782 7.79405 51.663 7.32646C51.3083 6.92121 51.4659 6.39127 52.3723 4.95733L53.5545 3.14931L49.9291 1.62185C47.9193 0.780182 46.1065 0.0632095 45.9095 0.000869751C45.6731 -0.030304 44.9243 0.780182 44.215 1.80888Z" fill="black"/>
</svg>
