<svg width="58" height="72" viewBox="0 0 58 72" fill="none" xmlns="http://www.w3.org/2000/svg">
<path d="M18.4236 1.5619C18.5072 2.82831 18.7162 3.20823 19.4688 3.29266C19.9705 3.37708 20.514 3.79922 20.6812 4.30578C20.8066 4.77013 20.8066 9.9624 20.6394 15.8723L20.3049 26.5523L10.271 43.7755C0.947831 59.7322 0.195287 61.1675 0.028055 63.3626C-0.264601 67.3306 1.74218 70.2012 5.58852 71.2987C7.84615 71.9319 49.6542 71.9319 51.9118 71.2987C55.5073 70.2856 58.0158 66.5286 57.5141 62.856C57.3886 61.8007 53.8768 55.342 47.1457 43.8177L36.9863 26.3835L36.9445 14.9858V3.63036L37.9897 3.37708C38.8677 3.16602 39.0349 2.87052 39.0349 1.68854V0.211067L28.6665 0.0844269L18.2982 0L18.4236 1.5619ZM35.8575 2.61724C34.9795 3.58815 34.9795 3.757 35.1886 15.2391L35.3976 26.89L45.7242 44.5775C55.8417 61.9273 56.0508 62.3072 55.8417 64.2491C55.6327 66.8663 54.6293 68.3016 52.3717 69.2725C50.6575 70.0745 49.5705 70.1167 27.9976 69.9901C5.96479 69.8635 5.42129 69.8635 4.29247 68.977C2.3275 67.4995 1.53314 66.1064 1.53314 64.038C1.49134 62.265 2.28569 60.7453 11.7343 44.4509L22.0191 26.8056L22.2699 15.3657C22.5208 4.22135 22.479 3.88364 21.6428 2.78609L20.8066 1.68854H28.792H36.7773L35.8575 2.61724Z" fill="black"/>
<path d="M28.374 8.86485C28.374 9.07592 29.3774 9.28699 30.6317 9.28699C31.8859 9.28699 33.0565 9.07592 33.1819 8.86485C33.3492 8.61157 32.4712 8.44272 30.9243 8.44272C29.5028 8.44272 28.374 8.61157 28.374 8.86485Z" fill="black"/>
<path d="M28.374 14.7748C28.374 14.9859 29.3774 15.197 30.6317 15.197C31.8859 15.197 33.0565 14.9859 33.1819 14.7748C33.3492 14.5215 32.4712 14.3527 30.9243 14.3527C29.5028 14.3527 28.374 14.5215 28.374 14.7748Z" fill="black"/>
<path d="M29.5452 20.5581C30.256 20.6423 31.5102 20.6423 32.2627 20.5581C32.9735 20.4738 32.3882 20.3896 30.8831 20.3896C29.378 20.3896 28.7927 20.4738 29.5452 20.5581Z" fill="black"/>
<path d="M28.374 26.1723C28.374 26.4256 29.5028 26.5945 30.9243 26.5945C32.4712 26.5945 33.3492 26.4256 33.1819 26.1723C33.0565 25.9191 31.8859 25.7502 30.6317 25.7502C29.3774 25.7502 28.374 25.9191 28.374 26.1723Z" fill="black"/>
<path d="M28.3743 32.0823C28.3743 32.3356 26.7438 32.5045 24.3189 32.5045H20.2218L12.2782 46.4772C7.93021 54.1178 4.08387 61.0831 3.83302 61.8851C3.37314 63.1093 3.41494 63.6159 3.87483 64.7556C5.08726 67.6684 3.95845 67.5417 28.8342 67.5417H51.2433L52.3303 66.5286C53.5427 65.3888 54.0862 63.7847 53.71 62.3917C53.5845 61.8429 49.7382 54.9621 45.1811 47.0681L36.9032 32.7155L35.2308 32.5889C34.3529 32.5045 33.4331 32.2512 33.224 32.0401C32.6805 31.5336 28.3743 31.5336 28.3743 32.0823Z" fill="black"/>
</svg>
