<svg width="76" height="76" viewBox="0 0 76 76" fill="none" xmlns="http://www.w3.org/2000/svg">
<path d="M50.5679 0.0579224C50.2771 0.089653 49.9031 0.159454 49.7369 0.21656C49.1551 0.419617 48.7574 0.908218 48.6327 1.59988L48.5615 1.96157L48.4606 1.7141C48.1579 0.997055 47.404 0.603638 46.6145 0.74958C46.0505 0.85746 43.3674 1.62526 43.0587 1.77121C42.7322 1.9235 42.376 2.28519 42.2158 2.6215C42.1386 2.77379 42.0792 3.04665 42.0614 3.31316C42.0318 3.74465 42.0318 3.751 41.9427 3.56698C41.6222 2.88167 40.803 2.50728 40.061 2.70399C39.3961 2.87532 36.6477 3.76369 36.4636 3.85887C36.2025 4.00481 35.8463 4.41727 35.7276 4.72186C35.6801 4.84876 35.6207 5.11527 35.597 5.30564L35.5614 5.65464L35.4723 5.47062C35.2586 5.0201 34.8253 4.67744 34.3266 4.55687C34.0239 4.48707 33.917 4.49976 32.6705 4.76627C31.9344 4.92491 31.0855 5.10258 30.7768 5.15969C30.1357 5.28026 29.738 5.47062 29.4768 5.7879C29.2156 6.11152 29.1088 6.35265 29.0672 6.72703L29.0316 7.05064L28.901 6.73338C28.7585 6.39706 28.438 6.00999 28.1709 5.86404C27.7969 5.66099 27.5179 5.62291 26.7402 5.69271C26.3307 5.73079 25.4699 5.7879 24.8347 5.81963C23.8375 5.86404 23.6297 5.89577 23.3626 6.01633C22.8877 6.23208 22.5315 6.6953 22.4009 7.2537C22.3534 7.45676 22.3416 7.43772 22.2228 6.9745C22.1338 6.61281 21.5877 6.01633 21.2434 5.90211C21.1128 5.8577 20.5251 5.78155 19.9374 5.73079C19.3497 5.68002 18.5187 5.59119 18.0854 5.54042C17.652 5.48331 17.2009 5.45793 17.0762 5.48331C16.542 5.58484 16.0493 5.97826 15.8177 6.47955L15.705 6.72068L15.6634 6.44782C15.61 6.09882 15.4378 5.71809 15.2419 5.48965C14.9155 5.11527 14.6602 5.00105 13.4195 4.71551C12.7606 4.56322 11.9414 4.36651 11.5971 4.27132C10.6058 3.99847 10.0003 4.10635 9.54324 4.63302C9.43639 4.74724 9.31173 4.92491 9.26424 5.03278L9.16926 5.22314L9.16333 4.89953C9.16333 4.39823 9.00305 3.99847 8.66469 3.63678C8.37976 3.32585 8.30852 3.29412 7.3528 2.94512C6.80074 2.74841 5.96968 2.43748 5.5126 2.25981C4.84775 2.00599 4.60437 1.94254 4.29569 1.94254C2.9838 1.92984 2.20617 3.55428 2.96006 4.71551C3.23312 5.13431 3.42308 5.26122 4.29569 5.61022C6.08841 6.31457 7.12129 6.65088 7.51308 6.65088C8.1245 6.65088 8.70624 6.27015 8.98524 5.70541C9.07429 5.52139 9.07429 5.52139 9.08022 5.94019C9.08616 6.54301 9.35922 7.06968 9.82818 7.38696C10.2437 7.6725 13.3364 8.44666 14.031 8.44666C14.304 8.44666 14.4999 8.40224 14.6958 8.3007C15.0164 8.14207 15.4319 7.6852 15.5269 7.39965C15.5922 7.20293 15.5922 7.20928 15.6871 7.61539C15.8237 8.19918 16.1442 8.63067 16.6132 8.86546C16.9872 9.05582 19.1717 9.32233 20.442 9.34136C20.9644 9.34771 21.1128 9.32233 21.3384 9.21445C21.8014 8.98602 22.2822 8.35782 22.2822 7.98343C22.2822 7.90729 22.3059 7.86922 22.3416 7.88825C22.3772 7.90729 22.4009 7.98978 22.4009 8.06593C22.4009 8.28167 22.7215 8.82738 22.9649 9.03043C23.4398 9.41116 23.6772 9.46193 24.8644 9.41116C25.4521 9.38578 26.3544 9.32867 26.8649 9.28426C27.9215 9.18907 28.1887 9.09389 28.5626 8.69412C28.7942 8.44666 29.0435 7.87556 29.0494 7.58366C29.0553 7.47579 29.0791 7.50117 29.1741 7.69788C29.4768 8.36416 30.0348 8.76392 30.6759 8.75758C31.3467 8.75758 34.3148 8.12303 34.754 7.88825C35.2586 7.61539 35.597 7.08872 35.6741 6.46052L35.7157 6.14324L35.8819 6.4161C36.2084 6.94277 36.6358 7.1839 37.2413 7.1839C37.6153 7.1839 37.8943 7.12045 38.9628 6.78413C41.0998 6.11786 41.2897 6.04172 41.5806 5.76886C41.913 5.45793 42.1149 5.03278 42.1505 4.55687L42.1861 4.18249L42.3523 4.42361C42.6669 4.89318 43.029 5.11527 43.5514 5.17239C43.872 5.20411 44.05 5.16604 44.8989 4.91856C45.4391 4.75359 46.2761 4.5188 46.7629 4.39189C47.4218 4.21422 47.7126 4.10635 47.9204 3.95405C48.2706 3.69389 48.5615 3.1926 48.6149 2.74207L48.6506 2.40575L48.799 2.71668C48.8821 2.89436 49.0602 3.12914 49.1907 3.2497C49.636 3.63678 49.7428 3.64947 52.0282 3.63043C53.9812 3.61774 54.0999 3.60505 54.3314 3.48449C54.6757 3.29412 54.9607 3.00858 55.0972 2.71668L55.21 2.46286L55.2397 2.86263C55.2931 3.58601 55.5899 3.97943 56.4091 4.42996C57.2045 4.8678 57.3708 5.03278 57.6616 5.66733C57.9109 6.21939 58.2552 6.61916 58.5342 6.68896C58.6945 6.73338 58.7183 6.84125 58.5699 6.84125C58.3562 6.84125 57.8575 7.15218 57.6557 7.39965C57.5429 7.54559 57.3292 7.95171 57.1867 8.3134C57.0443 8.67509 56.7534 9.30964 56.5397 9.72844C55.7561 11.2704 55.7324 11.3275 55.7383 11.7907C55.7383 12.2793 55.952 12.8314 56.2251 13.0662C56.3379 13.1613 56.3497 13.1931 56.2726 13.1613C55.9283 13.0344 55.6137 12.9964 55.3109 13.0535C54.9073 13.136 54.6817 13.2565 54.4086 13.5548C54.189 13.7959 52.5447 16.4547 52.2775 17.0004C51.957 17.6539 52.0579 18.4535 52.5269 19.0119L52.794 19.3292L52.5387 19.234C52.0223 19.0373 51.2209 19.2847 50.8469 19.7543C50.3127 20.4269 49.4104 23.2443 49.4104 24.2406V24.5198L47.9738 24.9386C47.1784 25.1733 39.3605 27.4514 30.5928 30.0023C21.8251 32.5531 11.9177 35.4403 8.56971 36.4175C3.93358 37.7691 2.37832 38.245 2.03996 38.4227C1.71347 38.5877 1.47602 38.7781 1.1436 39.1334C0.425324 39.9012 0.0988364 40.669 0.039475 41.7097C-0.00801419 42.6298 -0.619437 40.6754 5.30483 58.5886C6.90759 63.4429 8.65282 68.7097 9.1752 70.2961C9.69758 71.8824 10.22 73.3927 10.3327 73.6465C10.9145 74.9156 12.2798 75.8864 13.6451 75.988C14.2209 76.0324 14.6127 75.9626 15.7584 75.6326C16.2273 75.493 19.1657 74.6364 22.2822 73.7353C28.9841 71.7809 46.0861 66.806 66.0613 60.9872C71.2079 59.4897 73.713 58.7346 73.9563 58.6013C75.4582 57.7955 76.2655 56.0378 75.9212 54.3054C75.8737 54.077 75.3276 52.351 74.7102 50.4664C74.0869 48.5818 73.0719 45.4916 72.4486 43.6006C71.8253 41.7033 70.8042 38.6067 70.1809 36.7158C69.5577 34.8185 68.4595 31.4871 67.7412 29.3043C67.0289 27.1214 66.3046 24.9449 66.1444 24.4563C65.6754 23.0413 65.2599 22.3877 64.4407 21.7912L64.0311 21.493L63.8768 20.8203C63.5978 19.6147 62.8439 18.1997 62.0603 17.4192C61.3183 16.6767 60.4813 16.5942 59.7393 17.1907C59.5434 17.3557 59.4603 17.4001 59.5018 17.3176C59.579 17.159 59.579 16.5244 59.5018 16.2199C59.4068 15.8709 59.0982 15.4648 58.742 15.2427C58.5699 15.1284 58.1662 14.9635 57.8456 14.8683L57.258 14.6906L57.2223 14.4622C57.1808 14.183 56.9908 13.7832 56.789 13.5548L56.6406 13.3898L56.8959 13.485C57.3886 13.669 57.9822 13.5357 58.4808 13.1423C58.831 12.8631 60.1133 10.3376 60.4516 9.25253C60.6178 8.72585 60.5941 8.21187 60.3744 7.76134C60.2023 7.3933 60.0539 7.23466 59.6799 7.00623C59.4959 6.89201 59.4484 6.84125 59.5315 6.84125C59.7511 6.84125 60.2438 6.54301 60.4635 6.28284C61.0215 5.61657 61.0571 4.87415 60.5644 3.82714C60.1311 2.89436 59.4484 2.13924 58.4867 1.53642C57.4361 0.882835 56.7949 0.755928 56.1538 1.09224C55.7977 1.27626 55.489 1.61257 55.3881 1.91715C55.3228 2.10751 55.3168 2.10117 55.2812 1.73313C55.2397 1.26357 55.0913 0.920914 54.7945 0.603638C54.4739 0.260979 54.1415 0.121384 53.4648 0.0515823C52.7762 -0.018219 51.3159 -0.018219 50.5679 0.0579224ZM59.1397 18.2568C59.0744 18.5677 59.1457 19.1007 59.2941 19.4053C59.3475 19.5132 59.5493 19.786 59.7452 20.0145C60.0598 20.3888 60.5585 21.2201 60.505 21.2709C60.4635 21.3153 53.0136 23.4728 52.9958 23.4474C52.9602 23.4093 53.1739 22.7684 53.4766 22.0323C53.7141 21.4485 53.7556 21.2899 53.7556 20.9473C53.7497 20.4713 53.5657 19.9891 53.2629 19.6655C53.1323 19.5259 53.1027 19.4688 53.1798 19.5005C53.2451 19.5322 53.4766 19.5703 53.6903 19.583C54.373 19.621 54.7885 19.3609 55.2931 18.5613L55.6493 18.0029L55.8689 18.0474C56.1479 18.0981 56.8662 18.2948 57.3589 18.4598C57.5666 18.5233 57.8041 18.5804 57.8931 18.5804C58.184 18.5804 58.6589 18.39 58.9201 18.1743C59.0626 18.0601 59.1813 17.9712 59.1872 17.9712C59.1931 17.9776 59.1694 18.1045 59.1397 18.2568ZM57.6616 30.6685C57.6616 30.6812 57.5013 30.9414 57.3055 31.2333L56.9433 31.7726L56.7237 31.6711C56.3972 31.5252 55.8511 31.5379 55.4949 31.7092L55.2041 31.8488L55.3465 31.6838C55.4237 31.595 55.5602 31.3856 55.6433 31.2269C55.768 30.9731 55.8333 30.916 56.0589 30.8462C56.5278 30.7003 57.6616 30.5733 57.6616 30.6685ZM54.7885 32.3184C54.3611 32.9085 54.373 33.6573 54.8063 34.4441C54.9369 34.6725 55.0616 34.9327 55.0794 35.0215C55.1447 35.288 55.4296 35.6751 55.7205 35.8845C56.0767 36.1383 56.7712 36.316 57.252 36.2652C57.8338 36.2081 58.1365 35.9797 58.7836 35.104C59.5018 34.1268 60.3804 32.8387 60.5585 32.4897L60.7009 32.2232L60.9324 32.5214C61.4192 33.156 61.7754 34.0951 61.8644 34.9835C62.0188 36.5191 61.5142 37.9595 60.4575 39.0319C58.9557 40.5421 56.7831 40.8086 55.02 39.6982C54.4858 39.3618 53.7734 38.6004 53.4588 38.0293C52.5031 36.297 52.6159 34.0697 53.7378 32.5531C53.9634 32.2486 54.005 32.2232 54.2365 32.2168C54.373 32.2168 54.5808 32.1788 54.6936 32.1343C55.0022 32.0074 55.0082 32.0074 54.7885 32.3184Z" fill="black"/>
</svg>
