<svg width="25" height="26" viewBox="0 0 25 26" fill="none" xmlns="http://www.w3.org/2000/svg">
<circle cx="12.5" cy="13.2188" r="12.5" fill="#458E48"/>
<path d="M11.648 15.464C11.648 15.048 11.7173 14.6853 11.856 14.376C11.9947 14.0667 12.1653 13.7893 12.368 13.544C12.5813 13.2987 12.8107 13.0747 13.056 12.872C13.3013 12.6587 13.5307 12.4507 13.744 12.248C13.9573 12.0347 14.128 11.8107 14.256 11.576C14.3947 11.3413 14.464 11.0693 14.464 10.76C14.464 10.248 14.2613 9.832 13.856 9.512C13.4507 9.192 12.8907 9.032 12.176 9.032C11.536 9.032 10.9813 9.13867 10.512 9.352C10.0427 9.56533 9.64267 9.88 9.312 10.296L8.144 9.464C8.592 8.89867 9.16267 8.46133 9.856 8.152C10.5493 7.832 11.36 7.672 12.288 7.672C13.056 7.672 13.7227 7.78933 14.288 8.024C14.8533 8.248 15.2907 8.57333 15.6 9C15.92 9.416 16.08 9.92267 16.08 10.52C16.08 10.968 16.0107 11.352 15.872 11.672C15.7333 11.992 15.5573 12.2747 15.344 12.52C15.1307 12.7653 14.9013 12.9947 14.656 13.208C14.4213 13.4213 14.1973 13.6347 13.984 13.848C13.7707 14.0613 13.5947 14.296 13.456 14.552C13.3173 14.808 13.248 15.112 13.248 15.464H11.648ZM12.464 19.096C12.1653 19.096 11.9147 18.9947 11.712 18.792C11.52 18.5893 11.424 18.3493 11.424 18.072C11.424 17.7733 11.52 17.528 11.712 17.336C11.9147 17.144 12.1653 17.048 12.464 17.048C12.7627 17.048 13.008 17.144 13.2 17.336C13.392 17.528 13.488 17.7733 13.488 18.072C13.488 18.3493 13.392 18.5893 13.2 18.792C13.008 18.9947 12.7627 19.096 12.464 19.096Z" fill="black"/>
</svg>
