<svg width="269" height="45" viewBox="0 0 269 45" fill="none" xmlns="http://www.w3.org/2000/svg">
<path d="M21.5489 2.92705C21.8483 2.00574 23.1517 2.00574 23.4511 2.92705L27.3271 14.8561C27.4609 15.2682 27.8449 15.5471 28.2781 15.5471H40.8211C41.7898 15.5471 42.1926 16.7867 41.4089 17.3561L31.2614 24.7287C30.9109 24.9834 30.7642 25.4347 30.8981 25.8467L34.7741 37.7758C35.0735 38.6971 34.019 39.4633 33.2353 38.8939L23.0878 31.5213C22.7373 31.2666 22.2627 31.2666 21.9122 31.5213L11.7647 38.8939C10.981 39.4633 9.92654 38.6971 10.2259 37.7758L14.1019 25.8467C14.2358 25.4347 14.0891 24.9834 13.7386 24.7287L3.59113 17.3561C2.80741 16.7867 3.21019 15.5471 4.17891 15.5471H16.7219C17.1551 15.5471 17.5391 15.2682 17.6729 14.8561L21.5489 2.92705Z" fill="#458E48"/>
<path d="M77.5489 2.92705C77.8483 2.00574 79.1517 2.00574 79.4511 2.92705L83.3271 14.8561C83.4609 15.2682 83.8449 15.5471 84.2781 15.5471H96.8211C97.7898 15.5471 98.1926 16.7867 97.4089 17.3561L87.2614 24.7287C86.9109 24.9834 86.7642 25.4347 86.8981 25.8467L90.7741 37.7758C91.0735 38.6971 90.019 39.4633 89.2353 38.8939L79.0878 31.5213C78.7373 31.2666 78.2627 31.2666 77.9122 31.5213L67.7647 38.8939C66.981 39.4633 65.9265 38.6971 66.2259 37.7758L70.1019 25.8467C70.2358 25.4347 70.0891 24.9834 69.7386 24.7287L59.5911 17.3561C58.8074 16.7867 59.2102 15.5471 60.1789 15.5471H72.7219C73.1551 15.5471 73.5391 15.2682 73.6729 14.8561L77.5489 2.92705Z" fill="#458E48"/>
<path d="M133.549 2.92705C133.848 2.00574 135.152 2.00574 135.451 2.92705L139.327 14.8561C139.461 15.2682 139.845 15.5471 140.278 15.5471H152.821C153.79 15.5471 154.193 16.7867 153.409 17.3561L143.261 24.7287C142.911 24.9834 142.764 25.4347 142.898 25.8467L146.774 37.7758C147.073 38.6971 146.019 39.4633 145.235 38.8939L135.088 31.5213C134.737 31.2666 134.263 31.2666 133.912 31.5213L123.765 38.8939C122.981 39.4633 121.927 38.6971 122.226 37.7758L126.102 25.8467C126.236 25.4347 126.089 24.9834 125.739 24.7287L115.591 17.3561C114.807 16.7867 115.21 15.5471 116.179 15.5471H128.722C129.155 15.5471 129.539 15.2682 129.673 14.8561L133.549 2.92705Z" fill="#458E48"/>
<path d="M189.549 2.92705C189.848 2.00574 191.152 2.00574 191.451 2.92705L195.327 14.8561C195.461 15.2682 195.845 15.5471 196.278 15.5471H208.821C209.79 15.5471 210.193 16.7867 209.409 17.3561L199.261 24.7287C198.911 24.9834 198.764 25.4347 198.898 25.8467L202.774 37.7758C203.073 38.6971 202.019 39.4633 201.235 38.8939L191.088 31.5213C190.737 31.2666 190.263 31.2666 189.912 31.5213L179.765 38.8939C178.981 39.4633 177.927 38.6971 178.226 37.7758L182.102 25.8467C182.236 25.4347 182.089 24.9834 181.739 24.7287L171.591 17.3561C170.807 16.7867 171.21 15.5471 172.179 15.5471H184.722C185.155 15.5471 185.539 15.2682 185.673 14.8561L189.549 2.92705Z" fill="#458E48"/>
<path d="M245.549 2.92705C245.848 2.00574 247.152 2.00574 247.451 2.92705L251.327 14.8561C251.461 15.2682 251.845 15.5471 252.278 15.5471H264.821C265.79 15.5471 266.193 16.7867 265.409 17.3561L255.261 24.7287C254.911 24.9834 254.764 25.4347 254.898 25.8467L258.774 37.7758C259.073 38.6971 258.019 39.4633 257.235 38.8939L247.088 31.5213C246.737 31.2666 246.263 31.2666 245.912 31.5213L235.765 38.8939C234.981 39.4633 233.927 38.6971 234.226 37.7758L238.102 25.8467C238.236 25.4347 238.089 24.9834 237.739 24.7287L227.591 17.3561C226.807 16.7867 227.21 15.5471 228.179 15.5471H240.722C241.155 15.5471 241.539 15.2682 241.673 14.8561L245.549 2.92705Z" fill="#458E48"/>
</svg>
